<?xml version="1.0" encoding="utf-8"?>
<!-- Generator: Adobe Illustrator 23.1.0, SVG Export Plug-In . SVG Version: 6.00 Build 0)  -->
<svg version="1.1" id="Layer_1" xmlns="http://www.w3.org/2000/svg" xmlns:xlink="http://www.w3.org/1999/xlink" x="0px" y="0px"
	 viewBox="0 0 800 800" style="enable-background:new 0 0 800 800;" xml:space="preserve">
<style type="text/css">
	.st0{fill:none;stroke:#EEEEEE;stroke-width:66.6667;stroke-linecap:round;stroke-linejoin:round;stroke-miterlimit:133.3333;}
</style>
<g>
	<path id="Vector" class="st0" d="M333.3,166.7h-60c-37.3,0-56,0-70.3,7.3c-12.5,6.4-22.7,16.6-29.1,29.1
		c-7.3,14.3-7.3,32.9-7.3,70.3v253.3c0,37.3,0,56,7.3,70.3c6.4,12.5,16.6,22.8,29.1,29.1c14.2,7.3,32.9,7.3,70.2,7.3h253.5
		c37.3,0,55.9,0,70.1-7.3c12.5-6.4,22.8-16.6,29.2-29.2c7.3-14.2,7.3-32.9,7.3-70.2v-60.1 M666.7,300V133.3 M666.7,133.3H500
		 M666.7,133.3L433.3,366.7"/>
</g>
</svg>
