<?xml version="1.0" encoding="utf-8"?>
<!-- Generator: Adobe Illustrator 23.1.0, SVG Export Plug-In . SVG Version: 6.00 Build 0)  -->
<svg version="1.1" id="Layer_1" xmlns="http://www.w3.org/2000/svg" xmlns:xlink="http://www.w3.org/1999/xlink" x="0px" y="0px"
	 viewBox="0 0 100 100" style="enable-background:new 0 0 100 100;" xml:space="preserve">
<style type="text/css">
	.st0{fill-rule:evenodd;clip-rule:evenodd;fill:#EEEEEE;}
</style>
<path class="st0" d="M50.4,1C22.9,1,0.7,23.4,0.7,51.1c0,22.1,14.2,40.9,34,47.5c2.5,0.5,3.4-1.1,3.4-2.4c0-1.2-0.1-5.1-0.1-9.3
	c-13.8,3-16.7-6-16.7-6c-2.2-5.8-5.5-7.3-5.5-7.3c-4.5-3.1,0.3-3.1,0.3-3.1c5,0.3,7.7,5.1,7.7,5.1c4.4,7.6,11.6,5.5,14.5,4.1
	c0.4-3.2,1.7-5.5,3.1-6.7c-11-1.2-22.6-5.5-22.6-24.7c0-5.5,2-9.9,5.1-13.4c-0.5-1.2-2.2-6.4,0.5-13.3c0,0,4.2-1.3,13.7,5.1
	c4.1-1.1,8.2-1.7,12.4-1.7c4.2,0,8.5,0.6,12.4,1.7c9.5-6.5,13.7-5.1,13.7-5.1c2.7,6.9,1,12,0.5,13.3c3.2,3.5,5.1,8,5.1,13.4
	c0,19.2-11.6,23.5-22.7,24.7c1.8,1.6,3.4,4.6,3.4,9.3c0,6.7-0.1,12.1-0.1,13.8c0,1.3,0.9,2.9,3.4,2.4c19.8-6.6,34-25.4,34-47.5
	C100.1,23.4,77.8,1,50.4,1z"/>
</svg>
