<?xml version="1.0" encoding="utf-8"?>
<!-- Generator: Adobe Illustrator 23.1.0, SVG Export Plug-In . SVG Version: 6.00 Build 0)  -->
<svg version="1.1" id="Layer_1" xmlns="http://www.w3.org/2000/svg" xmlns:xlink="http://www.w3.org/1999/xlink" x="0px" y="0px"
	 viewBox="0 0 100 100" style="enable-background:new 0 0 100 100;" xml:space="preserve">
<style type="text/css">
	.st0{fill:none;stroke:#EEEEEE;stroke-width:8;stroke-linecap:round;stroke-linejoin:round;}
</style>
<path class="st0" d="M35,82.2C13.6,88.6,13.6,71.5,5,69.4 M64.9,95V78.5c0.3-4.1-1.1-8.2-4-11.1c13.4-1.5,27.5-6.6,27.5-29.9
	c0-6-2.3-11.7-6.4-16c1.9-5.2,1.8-11-0.4-16.1c0,0-5-1.5-16.7,6.3C55.1,9,44.7,9,35,11.6C23.3,3.8,18.2,5.3,18.2,5.3
	c-2.2,5.1-2.3,10.9-0.4,16.1c-4.1,4.4-6.4,10.1-6.4,16.1c0,23.2,14.1,28.2,27.5,29.9c-2.8,2.9-4.3,6.9-4,11V95"/>
</svg>
