<?xml version="1.0" encoding="utf-8"?>
<!-- Generator: Adobe Illustrator 23.1.0, SVG Export Plug-In . SVG Version: 6.00 Build 0)  -->
<svg version="1.1" id="Layer_1" xmlns="http://www.w3.org/2000/svg" xmlns:xlink="http://www.w3.org/1999/xlink" x="0px" y="0px"
	 viewBox="0 0 100 100" style="enable-background:new 0 0 100 100;" xml:space="preserve">
<style type="text/css">
	.st0{fill:#EEEEEE;}
</style>
<path class="st0" d="M78.9,1.1H21.8c-11.3,0-20.4,9.1-20.4,20.4v57.1C1.4,89.9,10.6,99,21.8,99h57.1c11.3,0,20.4-9.1,20.4-20.4V21.5
	C99.3,10.2,90.2,1.1,78.9,1.1z M34.1,78.6H21.8V33.7h12.2V78.6z M27.9,28.6c-3.9,0-7.1-3.2-7.1-7.2s3.2-7.2,7.1-7.2s7.1,3.2,7.1,7.2
	S31.9,28.6,27.9,28.6z M83,78.6H70.8V55.7c0-13.7-16.3-12.7-16.3,0v22.9H42.2V33.7h12.2v7.2C60.1,30.4,83,29.6,83,51V78.6z"/>
</svg>
