<?xml version="1.0" encoding="utf-8"?>
<!-- Generator: Adobe Illustrator 23.1.0, SVG Export Plug-In . SVG Version: 6.00 Build 0)  -->
<svg version="1.1" id="Layer_1" xmlns="http://www.w3.org/2000/svg" xmlns:xlink="http://www.w3.org/1999/xlink" x="0px" y="0px"
	 viewBox="0 0 172 100" style="enable-background:new 0 0 172 100;" xml:space="preserve">
<style type="text/css">
	.st0{fill:#EEEEEE;}
</style>
<path class="st0" d="M142.4,0.5V36c0,1.4,0,3.3,0,6s0,5.3,0.1,8l-0.7,0.2c-0.8-1.2-1.8-2.7-3.3-4.5s-3-3.7-4.4-5.5
	c-1.4-1.8-2.5-3.2-3.5-4.2L99.8,0.5l0,0H72.7h-35C30.3,0.5,24.2,2,19.3,5s-8.7,6.8-11.2,11.7s-3.7,10-3.7,15.6c0,6.3,1.5,12,4.5,17
	s7,8.9,12.1,11.9L1.4,99.6H37l15.1-33.2h15.7v33.2h4.7h27.2h2V60c0-0.8,0-2.2,0-4s0-3.7-0.1-5.4l0.7-0.2c1,1.4,2.2,3,3.3,4.5
	c1.2,1.6,2.5,3.3,4.2,5.3l34.6,39.4h26.9V0.5H142.4z M68,44.3H45.6c-2.5,0-4.6-1-6.3-3c-1.7-2-2.5-4.6-2.5-7.8c0-2,0.3-3.8,1.2-5.3
	c0.8-1.5,1.8-2.8,3.1-3.7c1.4-0.9,2.9-1.4,4.6-1.4h22.3v21.2H68z"/>
</svg>
